<svg width="73" height="24" viewBox="0 0 73 24" fill="none" xmlns="http://www.w3.org/2000/svg">
<g clip-path="url(#clip0_16873_12535)">
<path d="M4.63422 22.2839H0.5V0.5H4.63422V22.2839Z" fill="#FB8B19"/>
<path d="M34.9857 22.2839L34.5694 20.2301C33.3205 22.0655 31.2725 22.6603 29.306 22.5535C24.0855 22.2096 21.7122 18.757 21.7122 14.8956C21.7122 10.4487 24.8512 7.24243 29.9136 7.24243C31.5835 7.24243 33.4067 7.99055 34.3063 9.29628V0.5H38.4404V22.2839H34.9857ZM34.4737 14.9699C34.5072 12.6048 32.9043 10.7414 30.1672 10.7414C27.2962 10.7414 25.9086 12.8232 25.9086 14.877C25.8928 15.4245 25.9921 15.9694 26.2004 16.4784C26.4088 16.9873 26.7218 17.4496 27.1204 17.8371C27.519 18.2246 27.9947 18.5291 28.5186 18.7321C29.0425 18.9349 29.6035 19.032 30.1672 19.0173C32.7655 18.9987 34.4641 17.2747 34.4641 14.9699H34.4737Z" fill="#FB8B19"/>
<path d="M52.4723 22.2839L52.056 20.2301C50.8072 22.0655 48.7545 22.6603 46.7926 22.5535C41.5673 22.2096 39.1941 18.757 39.1941 14.8956C39.1941 10.4487 42.3377 7.24243 47.4003 7.24243C49.0655 7.24243 50.8933 7.99055 51.7881 9.29628V0.5H55.9223V22.2839H52.4723ZM51.9604 14.9699C51.9891 12.6048 50.3909 10.7414 47.6539 10.7414C44.7829 10.7414 43.3905 12.8232 43.3905 14.877C43.3774 15.4217 43.4782 15.9634 43.6869 16.4692C43.8955 16.9751 44.2077 17.4345 44.6044 17.8198C45.0012 18.2051 45.4743 18.5082 45.9952 18.7108C46.516 18.9135 47.0738 19.0114 47.6348 18.9987C50.2617 18.9987 51.9604 17.2747 51.9604 14.9699Z" fill="#FB8B19"/>
<path d="M20.9744 19.11V13.4781C20.9744 9.29603 16.9024 6.97266 12.9644 6.97266C10.3375 6.97266 7.70091 7.66037 6.07401 10.1185L8.70096 12.3257C10.4953 10.0023 15.6871 9.86756 16.711 13.1342H11.8734C8.52392 13.1342 5.27014 14.2866 5.27014 17.6787C5.27014 21.1638 8.47607 22.5625 11.6485 22.595C13.73 22.595 15.955 21.819 17.0316 20.2019L17.4192 22.2837H21.1323L20.9744 19.11ZM16.6106 15.5134C15.955 17.767 13.5434 19.6164 11.0025 19.9835C10.6241 20.0382 10.2412 20.0585 9.85893 20.044C9.83814 20.0435 9.81796 20.0371 9.80093 20.0255C9.78391 20.014 9.77078 19.9977 9.76322 19.9789L8.45214 16.6751C8.4461 16.6611 8.44349 16.6459 8.44453 16.6308C8.44556 16.6157 8.4502 16.601 8.4581 16.5879C8.46599 16.5748 8.47692 16.5637 8.49 16.5555C8.50309 16.5472 8.51798 16.542 8.53349 16.5403L16.4909 15.3972C16.507 15.3957 16.5232 15.3978 16.5384 15.4031C16.5535 15.4084 16.5674 15.417 16.5787 15.428C16.5902 15.4392 16.5989 15.4525 16.6044 15.4673C16.6099 15.482 16.612 15.4978 16.6106 15.5134Z" fill="#FB8B19"/>
<path d="M72.3396 19.11V13.4781C72.3396 9.29603 68.2675 6.97266 64.3295 6.97266C61.6978 6.97266 59.066 7.66037 57.4391 10.1185L60.0661 12.3257C61.8605 10.0023 67.0521 9.86756 68.0761 13.1342H63.2385C59.8891 13.1342 56.6353 14.2866 56.6353 17.6787C56.6353 21.1638 59.8412 22.5625 63.0136 22.595C65.0951 22.595 67.3202 21.819 68.3967 20.2019L68.7796 22.2837H72.4974L72.3396 19.11ZM67.9996 15.5134C67.344 17.767 64.9324 19.6164 62.3916 19.9835C62.0132 20.0382 61.6303 20.0584 61.248 20.044C61.2272 20.0435 61.207 20.0371 61.19 20.0255C61.173 20.014 61.1598 19.9977 61.1523 19.9789L59.8173 16.6751C59.8112 16.6611 59.8087 16.6459 59.8097 16.6308C59.8106 16.6157 59.8153 16.601 59.8232 16.5879C59.8311 16.5748 59.842 16.5637 59.8552 16.5555C59.8682 16.5472 59.8831 16.542 59.8987 16.5403L67.856 15.3972C67.8738 15.3915 67.8927 15.3903 67.9111 15.3937C67.9295 15.397 67.9466 15.4049 67.961 15.4165C67.9754 15.4282 67.9864 15.4432 67.9933 15.4601C68 15.4771 68.0022 15.4954 67.9996 15.5134Z" fill="#FB8B19"/>
</g>
<defs>
<clipPath id="clip0_16873_12535">
<rect width="72" height="23" fill="white" transform="translate(0.5 0.5)"/>
</clipPath>
</defs>
</svg>
